<?xml version="1.0" encoding="UTF-8"?>
<svg xmlns="http://www.w3.org/2000/svg" xmlns:xlink="http://www.w3.org/1999/xlink" viewBox="0 0 48 48" width="48px" height="48px">
<g id="surface58448977">
<path style=" stroke:none;fill-rule:nonzero;fill:rgb(20%,60.392159%,94.117647%);fill-opacity:1;" d="M 24 0 C 10.800781 0 0 10.800781 0 24 C 0 37.199219 10.800781 48 24 48 C 37.199219 48 48 37.199219 48 24 C 48 10.800781 37.199219 0 24 0 Z M 24 0 "/>
<path style=" stroke:none;fill-rule:nonzero;fill:rgb(63.529414%,89.411765%,95.686275%);fill-opacity:1;" d="M 29.953125 45.617188 C 29.953125 44.832031 29.980469 42.242188 29.980469 39.03125 C 29.980469 36.796875 29.214844 35.332031 28.351562 34.585938 C 33.699219 33.992188 39.3125 31.964844 39.3125 22.742188 C 39.3125 20.125 38.382812 17.980469 36.847656 16.300781 C 37.09375 15.695312 37.917969 13.253906 36.605469 9.949219 C 36.605469 9.949219 34.597656 9.304688 30.011719 12.410156 C 28.09375 11.882812 26.039062 11.617188 24 11.605469 C 21.960938 11.617188 19.90625 11.882812 17.992188 12.414062 C 13.410156 9.308594 11.394531 9.953125 11.394531 9.953125 C 10.085938 13.257812 10.910156 15.699219 11.15625 16.304688 C 9.625 17.980469 8.6875 20.125 8.6875 22.746094 C 8.6875 31.945312 14.289062 34.003906 19.621094 34.609375 C 18.933594 35.207031 18.316406 36.265625 18.097656 37.816406 C 16.726562 38.429688 13.25 39.488281 11.113281 35.820312 C 11.113281 35.820312 9.84375 33.515625 7.4375 33.347656 C 7.4375 33.347656 5.09375 33.316406 7.273438 34.804688 C 7.273438 34.804688 8.84375 35.542969 9.9375 38.316406 C 9.9375 38.316406 11.347656 42.984375 18.019531 41.53125 C 18.03125 43.535156 18.054688 45.046875 18.054688 45.613281 C 18.054688 46.242188 17.621094 46.960938 16.460938 46.773438 C 18.832031 47.558594 21.363281 48 24 48 C 26.640625 48 29.171875 47.558594 31.546875 46.769531 C 30.378906 46.96875 29.953125 46.246094 29.953125 45.617188 Z M 29.953125 45.617188 "/>
</g>
</svg>
